<svg width="114" height="46" viewBox="0 0 114 46" fill="none" xmlns="http://www.w3.org/2000/svg">
<path d="M0.412842 36.6268V0H4.78903V36.6268H0.412842Z" fill="black"/>
<path d="M26.1805 37.2451C23.0569 37.2451 20.2901 36.6585 17.88 35.4851C15.47 34.3118 13.599 32.6628 12.2671 30.5382C10.9352 28.4135 10.2693 25.9796 10.2693 23.2366C10.2693 20.4935 10.9352 18.0597 12.2671 15.935C13.599 13.8103 15.47 12.1614 17.88 10.988C20.2901 9.8147 23.0569 9.22804 26.1805 9.22804C29.3041 9.22804 32.0709 9.8147 34.481 10.988C36.8911 12.1614 38.7621 13.8103 40.0939 15.935C41.4258 18.0597 42.0918 20.4935 42.0918 23.2366C42.0918 25.9796 41.4258 28.4135 40.0939 30.5382C38.7621 32.6628 36.8911 34.3118 34.481 35.4851C32.0709 36.6585 29.3041 37.2451 26.1805 37.2451ZM26.1805 33.6062C28.4955 33.6062 30.5091 33.1861 32.2216 32.3457C33.9498 31.4895 35.2817 30.2845 36.2172 28.7306C37.1527 27.1609 37.6204 25.3295 37.6204 23.2366C37.6204 21.1595 37.1527 19.3361 36.2172 17.7664C35.2817 16.1966 33.9498 14.9916 32.2216 14.1512C30.5091 13.295 28.4955 12.8669 26.1805 12.8669C23.8656 12.8669 21.844 13.295 20.1157 14.1512C18.4033 14.9916 17.0793 16.1966 16.1438 17.7664C15.2084 19.3361 14.7406 21.1595 14.7406 23.2366C14.7406 25.3295 15.2084 27.1609 16.1438 28.7306C17.0793 30.2845 18.4033 31.4895 20.1157 32.3457C21.844 33.1861 23.8656 33.6062 26.1805 33.6062Z" fill="black"/>
<path d="M72.4872 9.84641H76.8634V29.4917C76.8634 32.9007 76.1737 35.7705 74.7942 38.1013C73.4148 40.448 71.52 42.2 69.1099 43.3575C66.6999 44.515 63.933 45.0937 60.8095 45.0937C58.4628 45.0937 56.2985 44.7687 54.3165 44.1186C52.3504 43.4844 50.4636 42.4934 48.656 41.1456V37.3165C52.065 40.0754 56.0289 41.4548 60.5478 41.4548C63.1165 41.4548 65.2887 41.0029 67.0645 40.0992C68.8562 39.1954 70.204 37.8952 71.1078 36.1987C72.0274 34.5021 72.4872 32.4805 72.4872 30.1338V27.3274C71.631 28.7068 70.5211 29.9673 69.1575 31.109C67.8098 32.2506 66.2559 33.1702 64.4959 33.8679C62.7359 34.5655 60.8729 34.9143 58.9068 34.9143C56.4967 34.9143 54.3086 34.3752 52.3425 33.2971C50.3764 32.2189 48.8225 30.7126 47.6809 28.7782C46.5551 26.8279 45.9923 24.5923 45.9923 22.0712C45.9923 19.5501 46.5551 17.3224 47.6809 15.388C48.8225 13.4377 50.3764 11.9235 52.3425 10.8453C54.3086 9.76713 56.4967 9.22804 58.9068 9.22804C60.8729 9.22804 62.728 9.58479 64.4721 10.2983C66.2321 10.996 67.786 11.9235 69.1337 13.081C70.4973 14.2385 71.6151 15.5069 72.4872 16.8864V9.84641ZM60.0722 31.4181C62.6091 31.4181 64.9161 30.6729 66.9932 29.1825C69.0861 27.6762 70.9809 25.3058 72.6775 22.0712C70.9968 18.8208 69.1099 16.4503 67.017 14.9599C64.924 13.4536 62.6091 12.7004 60.0722 12.7004C58.0585 12.7004 56.3223 13.0968 54.8635 13.8896C53.4207 14.6824 52.3187 15.7923 51.5576 17.2193C50.8124 18.6305 50.4398 20.2478 50.4398 22.0712C50.4398 23.8946 50.8124 25.5119 51.5576 26.923C52.3187 28.3342 53.4207 29.4362 54.8635 30.229C56.3223 31.0218 58.0585 31.4181 60.0722 31.4181Z" fill="black"/>
<path d="M98.0888 37.2451C94.9652 37.2451 92.1984 36.6585 89.7883 35.4851C87.3782 34.3118 85.5072 32.6628 84.1754 30.5382C82.8435 28.4135 82.1775 25.9796 82.1775 23.2366C82.1775 20.4935 82.8435 18.0597 84.1754 15.935C85.5072 13.8103 87.3782 12.1614 89.7883 10.988C92.1984 9.8147 94.9652 9.22804 98.0888 9.22804C101.212 9.22804 103.979 9.8147 106.389 10.988C108.799 12.1614 110.67 13.8103 112.002 15.935C113.334 18.0597 114 20.4935 114 23.2366C114 25.9796 113.334 28.4135 112.002 30.5382C110.67 32.6628 108.799 34.3118 106.389 35.4851C103.979 36.6585 101.212 37.2451 98.0888 37.2451ZM98.0888 33.6062C100.404 33.6062 102.417 33.1861 104.13 32.3457C105.858 31.4895 107.19 30.2845 108.125 28.7306C109.061 27.1609 109.529 25.3295 109.529 23.2366C109.529 21.1595 109.061 19.3361 108.125 17.7664C107.19 16.1966 105.858 14.9916 104.13 14.1512C102.417 13.295 100.404 12.8669 98.0888 12.8669C95.7738 12.8669 93.7522 13.295 92.0239 14.1512C90.3115 14.9916 88.9876 16.1966 88.0521 17.7664C87.1166 19.3361 86.6489 21.1595 86.6489 23.2366C86.6489 25.3295 87.1166 27.1609 88.0521 28.7306C88.9876 30.2845 90.3115 31.4895 92.0239 32.3457C93.7522 33.1861 95.7738 33.6062 98.0888 33.6062Z" fill="black"/>
</svg>
